<mxfile host="app.diagrams.net" modified="2023-11-09T09:08:32.956Z" agent="Mozilla/5.0 (Windows NT 10.0; Win64; x64) AppleWebKit/537.36 (KHTML, like Gecko) Chrome/116.0.0.0 Safari/537.36" etag="npTNdsO7bl8gcsG9MRtM" version="22.0.8" type="github">
  <diagram name="第 1 页" id="sFqef6l7gzEW8IsTwzNN">
    <mxGraphModel dx="794" dy="432" grid="1" gridSize="10" guides="1" tooltips="1" connect="1" arrows="1" fold="1" page="1" pageScale="1" pageWidth="827" pageHeight="1169" math="0" shadow="0">
      <root>
        <mxCell id="0" />
        <mxCell id="1" parent="0" />
        <mxCell id="k0Cv1iRUYUVOKGHkEQ6Z-1" value="A" style="rounded=0;whiteSpace=wrap;html=1;" vertex="1" parent="1">
          <mxGeometry x="260" y="190" width="80" height="50" as="geometry" />
        </mxCell>
        <mxCell id="k0Cv1iRUYUVOKGHkEQ6Z-12" style="edgeStyle=orthogonalEdgeStyle;rounded=0;orthogonalLoop=1;jettySize=auto;html=1;exitX=0.5;exitY=1;exitDx=0;exitDy=0;entryX=0.5;entryY=1;entryDx=0;entryDy=0;" edge="1" parent="1" source="k0Cv1iRUYUVOKGHkEQ6Z-3" target="k0Cv1iRUYUVOKGHkEQ6Z-4">
          <mxGeometry relative="1" as="geometry" />
        </mxCell>
        <mxCell id="k0Cv1iRUYUVOKGHkEQ6Z-15" value="3、next指向下一个node" style="edgeLabel;html=1;align=center;verticalAlign=middle;resizable=0;points=[];" vertex="1" connectable="0" parent="k0Cv1iRUYUVOKGHkEQ6Z-12">
          <mxGeometry x="0.1" relative="1" as="geometry">
            <mxPoint as="offset" />
          </mxGeometry>
        </mxCell>
        <mxCell id="k0Cv1iRUYUVOKGHkEQ6Z-3" value="B" style="rounded=0;whiteSpace=wrap;html=1;" vertex="1" parent="1">
          <mxGeometry x="390" y="190" width="80" height="50" as="geometry" />
        </mxCell>
        <mxCell id="k0Cv1iRUYUVOKGHkEQ6Z-11" style="edgeStyle=orthogonalEdgeStyle;rounded=0;orthogonalLoop=1;jettySize=auto;html=1;exitX=0.5;exitY=0;exitDx=0;exitDy=0;entryX=0.5;entryY=0;entryDx=0;entryDy=0;" edge="1" parent="1" source="k0Cv1iRUYUVOKGHkEQ6Z-4" target="k0Cv1iRUYUVOKGHkEQ6Z-3">
          <mxGeometry relative="1" as="geometry" />
        </mxCell>
        <mxCell id="k0Cv1iRUYUVOKGHkEQ6Z-13" value="2、prev指向前一个node" style="edgeLabel;html=1;align=center;verticalAlign=middle;resizable=0;points=[];" vertex="1" connectable="0" parent="k0Cv1iRUYUVOKGHkEQ6Z-11">
          <mxGeometry x="0.0222" y="-1" relative="1" as="geometry">
            <mxPoint as="offset" />
          </mxGeometry>
        </mxCell>
        <mxCell id="k0Cv1iRUYUVOKGHkEQ6Z-4" value="&lt;font style=&quot;vertical-align: inherit;&quot;&gt;&lt;font style=&quot;vertical-align: inherit;&quot;&gt;C&lt;/font&gt;&lt;/font&gt;" style="rounded=0;whiteSpace=wrap;html=1;" vertex="1" parent="1">
          <mxGeometry x="530" y="190" width="80" height="50" as="geometry" />
        </mxCell>
        <mxCell id="k0Cv1iRUYUVOKGHkEQ6Z-5" value="head" style="text;html=1;strokeColor=none;fillColor=none;align=center;verticalAlign=middle;whiteSpace=wrap;rounded=0;" vertex="1" parent="1">
          <mxGeometry x="270" y="150" width="60" height="30" as="geometry" />
        </mxCell>
        <mxCell id="k0Cv1iRUYUVOKGHkEQ6Z-7" value="tail" style="text;html=1;strokeColor=none;fillColor=none;align=center;verticalAlign=middle;whiteSpace=wrap;rounded=0;" vertex="1" parent="1">
          <mxGeometry x="400" y="140" width="60" height="30" as="geometry" />
        </mxCell>
      </root>
    </mxGraphModel>
  </diagram>
</mxfile>
